# xmcd
#
# Track frame offsets: 
#        150
#        9841
#        26638
#        49429
#        74680
#        80689
#        99307
#        126711
#        141186
#
# Disc length: 2178 seconds
#
# Revision: 0
# Processed by: cddbd v1.5.2PL0 Copyright (c) Steve Scherf et al.
# Submitted via: ExactAudioCopy v0.95b3
#
DISCID=81088009
DTITLE=Heather Luttrell - Grits N' Pulp
DYEAR=2005
DGENRE=Blues
TTITLE0=Guilty
TTITLE1=Wild Women Don't Get the Blues (they just get drunk)
TTITLE2=Gentle Mind
TTITLE3=Driving Towards the Moon
TTITLE4=Intro
TTITLE5=Sweet Girl
TTITLE6=Love This Way
TTITLE7=Anything But Me
TTITLE8=With Love, Your Wife the Drunk
EXTD=
EXTT0=
EXTT1=
EXTT2=
EXTT3=
EXTT4=
EXTT5=
EXTT6=
EXTT7=
EXTT8=
PLAYORDER=
